<svg width="29" height="30" viewBox="0 0 29 30" fill="none" xmlns="http://www.w3.org/2000/svg">
<rect y="0.5" width="29" height="29" rx="14.5" fill="#E4EAF0"/>
<path d="M16.3628 7.47852C19.2928 7.80389 21.6076 10.1156 21.9361 13.0455" stroke="#7E95B0" stroke-width="1.5" stroke-linecap="round" stroke-linejoin="round"/>
<path d="M16.3628 10.2832C17.7648 10.5555 18.8605 11.652 19.1336 13.054" stroke="#7E95B0" stroke-width="1.5" stroke-linecap="round" stroke-linejoin="round"/>
<path fill-rule="evenodd" clip-rule="evenodd" d="M13.7335 15.3733C16.8914 18.5305 17.6078 14.878 19.6185 16.8873C21.5569 18.8253 22.6719 19.2136 20.2151 21.6689C19.9074 21.9162 17.9528 24.8906 11.0837 18.0233C4.21372 11.155 7.1864 9.19837 7.4337 8.89081C9.89564 6.42864 10.2781 7.54928 12.2165 9.48723C14.2263 11.4974 10.5755 12.2162 13.7335 15.3733Z" stroke="#7E95B0" stroke-width="1.5" stroke-linecap="round" stroke-linejoin="round"/>
</svg>
