<svg width="44" height="37" viewBox="0 0 44 37" fill="none" xmlns="http://www.w3.org/2000/svg">
<g clip-path="url(#clip0_133_6921)">
<path d="M32.4002 20.5806L18.9554 17.8061V17.7999L16.2092 4.17383V20.5806V20.5868V36.975L18.9554 23.3675V23.3613L32.4185 20.5868L32.4002 20.5806Z" fill="#385E8A"/>
<path d="M16.2092 20.5806V4.17383L13.4691 17.8061L0 20.5806L13.4691 23.3613L16.2092 36.9997V36.975V20.5868V20.5806Z" fill="#7E95B0"/>
<path d="M33.7885 7.48509L27.6568 6.22113V6.21496L26.4024 0V7.48509V14.964L27.6568 8.75521L33.8007 7.48509H33.7885Z" fill="#385E8A"/>
<path d="M26.4024 7.48509V0L25.1542 6.22113L19.0102 7.48509L25.1542 8.75521L26.4024 14.9763V14.964V7.48509Z" fill="#7E95B0"/>
<path d="M43.9939 16.4324L37.8622 15.1684V15.1622L36.6078 8.94727V16.4324V23.9113L37.8622 17.7025L44 16.4324H43.9939Z" fill="#B1302E"/>
<path d="M36.6078 16.4324V8.94727L35.3595 15.1684L29.2156 16.4324L35.3595 17.7025L36.6078 23.9236V23.9113V16.4324Z" fill="#FFBEBC"/>
</g>
<defs>
<clipPath id="clip0_133_6921">
<rect width="44" height="37" fill="white"/>
</clipPath>
</defs>
</svg>
