<svg width="22" height="22" viewBox="0 0 22 22" fill="none" xmlns="http://www.w3.org/2000/svg">
<path d="M4.94954 1.92578H17.0495C18.0579 1.92578 18.8829 2.75078 18.8829 3.75911V5.77578C18.8829 6.50911 18.4245 7.42578 17.9662 7.88412L14.0245 11.3674C13.4745 11.8258 13.1079 12.7424 13.1079 13.4758V17.4174C13.1079 17.9674 12.7412 18.7008 12.2829 18.9758L10.9995 19.8008C9.80788 20.5341 8.15788 19.7091 8.15788 18.2424V13.3841C8.15788 12.7424 7.79121 11.9174 7.42454 11.4591L3.94121 7.79245C3.48288 7.33411 3.11621 6.50911 3.11621 5.95911V3.85078C3.11621 2.75078 3.94121 1.92578 4.94954 1.92578Z" stroke="#050F2C" stroke-width="1.5" stroke-miterlimit="10" stroke-linecap="round" stroke-linejoin="round"/>
<path d="M10.0192 1.92578L5.5 9.16745" stroke="#050F2C" stroke-width="1.5" stroke-miterlimit="10" stroke-linecap="round" stroke-linejoin="round"/>
</svg>
