<svg width="34" height="34" viewBox="0 0 34 34" fill="none" xmlns="http://www.w3.org/2000/svg">
<path d="M18.6675 28.533L18.6608 28.537L18.6543 28.5411L16.7337 29.7758C15.2542 30.6822 13.2372 29.6394 13.2372 27.8617V20.5742C13.2372 20.0076 13.0779 19.392 12.8577 18.8417C12.6365 18.2886 12.3384 17.7628 12.0277 17.3744L12.0136 17.3568L11.9981 17.3406L11.3538 16.6689C11.0787 16.3746 11.0328 15.9394 11.2469 15.6053L11.2469 15.6053L11.2504 15.5998L18.2904 4.29732L18.2908 4.29665C18.4469 4.0452 18.726 3.88672 19.0347 3.88672H26.0747C27.3111 3.88672 28.3247 4.90036 28.3247 6.13672V9.16172C28.3247 9.61737 28.1794 10.1638 27.9399 10.6908C27.7037 11.2102 27.3958 11.6675 27.1065 11.9602L21.2113 17.17C20.7236 17.5785 20.3408 18.1659 20.0801 18.7805C19.8173 19.3997 19.6622 20.0848 19.6622 20.7117V26.6242C19.6622 26.9373 19.554 27.3394 19.3577 27.717C19.1597 28.0977 18.9052 28.3903 18.6675 28.533Z" fill="#B1302E" stroke="#B1302E"/>
<path opacity="0.4" d="M9.42559 13.0496L9.42451 13.0513C9.13098 13.5261 8.44803 13.6009 8.05291 13.1892C8.05268 13.1889 8.05244 13.1887 8.05221 13.1884L6.77499 11.8425L6.77511 11.8424L6.76586 11.8332C6.47505 11.5424 6.19702 11.1161 5.992 10.6588C5.78503 10.1971 5.6748 9.75373 5.6748 9.43672V6.27422C5.6748 4.88425 6.70429 3.88672 7.9248 3.88672H13.5623C14.2395 3.88672 14.6658 4.63647 14.3056 5.2278L9.42559 13.0496Z" fill="#B1302E" stroke="#B1302E"/>
</svg>
