<svg width="22" height="22" viewBox="0 0 22 22" fill="none" xmlns="http://www.w3.org/2000/svg">
<path d="M8.24984 3.66602H4.58317C4.07691 3.66602 3.6665 4.07642 3.6665 4.58268V8.24935C3.6665 8.75561 4.07691 9.16602 4.58317 9.16602H8.24984C8.7561 9.16602 9.1665 8.75561 9.1665 8.24935V4.58268C9.1665 4.07642 8.7561 3.66602 8.24984 3.66602Z" stroke="#385E8A" stroke-width="1.5" stroke-linecap="round" stroke-linejoin="round"/>
<path d="M17.4168 3.66602H13.7502C13.2439 3.66602 12.8335 4.07642 12.8335 4.58268V8.24935C12.8335 8.75561 13.2439 9.16602 13.7502 9.16602H17.4168C17.9231 9.16602 18.3335 8.75561 18.3335 8.24935V4.58268C18.3335 4.07642 17.9231 3.66602 17.4168 3.66602Z" stroke="#D14F4D" stroke-width="1.5" stroke-linecap="round" stroke-linejoin="round"/>
<path d="M8.24984 12.834H4.58317C4.07691 12.834 3.6665 13.2444 3.6665 13.7507V17.4173C3.6665 17.9236 4.07691 18.334 4.58317 18.334H8.24984C8.7561 18.334 9.1665 17.9236 9.1665 17.4173V13.7507C9.1665 13.2444 8.7561 12.834 8.24984 12.834Z" stroke="#385E8A" stroke-width="1.5" stroke-linecap="round" stroke-linejoin="round"/>
<path d="M17.4168 12.834H13.7502C13.2439 12.834 12.8335 13.2444 12.8335 13.7507V17.4173C12.8335 17.9236 13.2439 18.334 13.7502 18.334H17.4168C17.9231 18.334 18.3335 17.9236 18.3335 17.4173V13.7507C18.3335 13.2444 17.9231 12.834 17.4168 12.834Z" stroke="#385E8A" stroke-width="1.5" stroke-linecap="round" stroke-linejoin="round"/>
</svg>
